<?xml version="1.0" encoding="iso-8859-1"?>
<!-- Generator: Adobe Illustrator 17.1.0, SVG Export Plug-In . SVG Version: 6.00 Build 0)  -->
<!DOCTYPE svg PUBLIC "-//W3C//DTD SVG 1.1//EN" "http://www.w3.org/Graphics/SVG/1.1/DTD/svg11.dtd">
<svg version="1.1" id="Capa_1" xmlns="http://www.w3.org/2000/svg" xmlns:xlink="http://www.w3.org/1999/xlink" x="0px" y="0px"
	 viewBox="0 0 360.819 360.819" style="enable-background:new 0 0 360.819 360.819;" xml:space="preserve">
<g>
	<path d="M142.407,86.576c0.965,0.655,2.095,1.002,3.269,1.002h0.012c3.215,0,5.831-2.614,5.831-5.828
		c0-0.546-0.075-1.086-0.224-1.608c-2.694-11.824-1.438-21.312,3.732-28.202c6.484-8.639,9.354-19.734,7.678-29.677
		c-1.488-8.856-6.248-16.217-13.756-21.277c-1.947-1.321-4.626-1.315-6.577,0.025c-1.986,1.367-2.917,3.771-2.369,6.133
		c2.918,12.45,0.243,20.376-6.455,32.425c-4.357,7.837-6.136,16.651-5.008,24.821C129.825,73.676,134.626,81.353,142.407,86.576z"/>
	<path d="M191.465,82.718c0.913,0.624,1.979,0.953,3.084,0.953h0.006c3.024,0,5.485-2.461,5.485-5.486
		c0-0.499-0.068-0.994-0.203-1.477c-1.888-8.319-1.031-14.952,2.544-19.716c4.959-6.606,7.152-15.105,5.866-22.731
		c-1.149-6.839-4.825-12.524-10.627-16.438c-1.826-1.234-4.301-1.253-6.194,0.036c-1.849,1.282-2.735,3.61-2.214,5.761
		c2.069,8.823,0.245,14.22-4.627,22.979c-3.33,5.99-4.687,12.735-3.82,18.99C181.755,72.762,185.465,78.692,191.465,82.718z"/>
	<path d="M93.729,82.718c0.913,0.624,1.979,0.953,3.084,0.953h0.005c3.025,0,5.486-2.461,5.486-5.486
		c0-0.499-0.068-0.994-0.203-1.477c-1.888-8.319-1.032-14.952,2.542-19.716c4.96-6.605,7.153-15.104,5.868-22.732
		c-1.149-6.839-4.825-12.524-10.627-16.438c-1.827-1.234-4.301-1.253-6.194,0.036c-1.849,1.282-2.735,3.61-2.214,5.761
		c2.069,8.822,0.245,14.219-4.627,22.979c-3.33,5.99-4.687,12.735-3.82,18.99C84.019,72.762,87.729,78.692,93.729,82.718z"/>
	<path d="M336.523,210.28c0-39.038-30.84-71.002-69.435-72.825v-3.921c0-17.292-7.054-24.346-24.347-24.346H48.644
		c-17.293,0-24.348,7.054-24.348,24.346v168.159c0,8.906,3.97,23.368,12.836,35.604c7.776,10.731,22.12,23.522,46.292,23.522
		h124.537c24.172,0,38.516-12.792,46.292-23.523c8.866-12.235,12.835-26.698,12.835-35.604v-18.588
		C305.683,281.282,336.523,249.318,336.523,210.28z M267.088,248.027v-75.494c19.28,1.763,34.435,18.015,34.435,37.747
		S286.368,246.264,267.088,248.027z"/>
</g>
<g>
</g>
<g>
</g>
<g>
</g>
<g>
</g>
<g>
</g>
<g>
</g>
<g>
</g>
<g>
</g>
<g>
</g>
<g>
</g>
<g>
</g>
<g>
</g>
<g>
</g>
<g>
</g>
<g>
</g>
</svg>
